<svg width="20" height="20" viewBox="0 0 20 20" fill="none" xmlns="http://www.w3.org/2000/svg">
  <path fill-rule="evenodd" clip-rule="evenodd" d="M2.5 15.8059V5.83337C2.5 4.45266 3.61929 3.33337 5 3.33337H15C16.3807 3.33337 17.5 4.45266 17.5 5.83337V12.5C17.5 13.8808 16.3807 15 15 15H6.72531L5.56872 16.7349C5.56871 16.7349 5.56873 16.7349 5.56872 16.7349C4.64943 18.1139 2.5 17.4631 2.5 15.8059ZM4.18193 15.8105L5.63542 13.6302C5.68793 13.5515 5.75568 13.4861 5.83333 13.4369C5.93853 13.3702 6.06188 13.3334 6.19012 13.3334H15C15.4602 13.3334 15.8333 12.9603 15.8333 12.5V5.83337C15.8333 5.37314 15.4602 5.00004 15 5.00004H5C4.53976 5.00004 4.16667 5.37314 4.16667 5.83337V15.8059C4.16667 15.8141 4.17736 15.8173 4.18193 15.8105Z" fill="#212121"/>
  <ellipse cx="6.66658" cy="9.16671" rx="0.833333" ry="0.833333" fill="#212121"/>
  <ellipse cx="10.0001" cy="9.16671" rx="0.833333" ry="0.833333" fill="#212121"/>
  <circle cx="13.3333" cy="9.16671" r="0.833333" fill="#212121"/>
</svg>