<svg width="24" height="24" viewBox="0 0 24 24" fill="none" xmlns="http://www.w3.org/2000/svg">
<path fill-rule="evenodd" clip-rule="evenodd" d="M14.8525 13.5296C15.5742 12.5392 16 11.3193 16 10C16 6.68629 13.3137 4 10 4C6.68629 4 4 6.68629 4 10C4 13.3137 6.68629 16 10 16C11.3193 16 12.5392 15.5742 13.5296 14.8525L17.0157 18.3386C17.381 18.7039 17.9733 18.7039 18.3386 18.3386C18.7039 17.9733 18.7039 17.381 18.3386 17.0157L14.8525 13.5296ZM14.1538 10C14.1538 12.2941 12.2941 14.1538 10 14.1538C7.70589 14.1538 5.84615 12.2941 5.84615 10C5.84615 7.70589 7.70589 5.84615 10 5.84615C12.2941 5.84615 14.1538 7.70589 14.1538 10Z" fill="#212121"/>
</svg>
