<svg width="20" height="15" viewBox="0 0 14 13" fill="none" xmlns="http://www.w3.org/2000/svg">
  <path fill-rule="evenodd" clip-rule="evenodd" d="M4.23732 1.83329C3.94355 1.83329 3.65265 1.89117 3.38125 2.00363C3.10985 2.11608 2.86327 2.28091 2.65559 2.48869C2.44781 2.69637 2.28271 2.94323 2.17025 3.21463C2.0578 3.48603 1.99992 3.77692 1.99992 4.0707C1.99992 4.36447 2.0578 4.65537 2.17025 4.92677C2.28271 5.19817 2.44753 5.44475 2.65531 5.65243L7.00007 9.99719L11.3447 5.65257C11.7642 5.23303 11.9999 4.66401 11.9999 4.0707C11.9999 3.47738 11.7642 2.90836 11.3447 2.48882C10.9251 2.06929 10.3561 1.83359 9.76281 1.83359C9.1695 1.83359 8.60048 2.06929 8.18094 2.48882L7.58932 3.08044C7.26389 3.40588 6.73625 3.40588 6.41081 3.08044L5.81919 2.48882C5.61151 2.28105 5.36479 2.11608 5.09339 2.00363C4.82199 1.89117 4.5311 1.83329 4.23732 1.83329ZM2.74327 0.463903C3.21693 0.267642 3.72461 0.166626 4.23732 0.166626C4.75003 0.166626 5.25772 0.267642 5.73138 0.463903C6.20504 0.660165 6.63539 0.947825 6.99784 1.31045L7.00007 1.31268L7.00243 1.31031C7.73453 0.578214 8.72747 0.166924 9.76281 0.166924C10.7982 0.166924 11.7911 0.578214 12.5232 1.31031C13.2553 2.04241 13.6666 3.03535 13.6666 4.0707C13.6666 5.10604 13.2553 6.09898 12.5232 6.83108L7.58932 11.765C7.43304 11.9212 7.22108 12.009 7.00007 12.009C6.77905 12.009 6.56709 11.9212 6.41081 11.765L1.47708 6.83122C1.47703 6.83117 1.47712 6.83126 1.47708 6.83122C1.11452 6.46879 0.826766 6.03835 0.63053 5.56475C0.434269 5.09109 0.333252 4.58341 0.333252 4.0707C0.333252 3.55799 0.434269 3.0503 0.63053 2.57664C0.826741 2.1031 1.1143 1.67285 1.4768 1.31045C1.8392 0.947955 2.26973 0.660115 2.74327 0.463903Z" fill="#212121"/>
</svg>